PathFileType	4	(X/Y/Z)	C:/Users/opensim2020/Desktop/walking_exp_matlab/subject01_walking14_straight_02.trc																																																																																																																												
DataRate	CameraRate	NumFrames	NumMarkers	Units	OrigDataRate	OrigDataStartFrame	OrigNumFrames																																																																																																																								
100	100	4	42	mm	100	1256	125																																																																																																																								
Frame#	Time	LFHD			RFHD			LBHD			RBHD			C7			T10			CLAV			STRN			RBAK			LSHO			LUPA			LELB			LFRM			LWRA			LWRB			LFIN			RSHO			RUPA			RELB			RFRM			RWRA			RWRB			RFIN			LASI			RASI			LPSI			RPSI			LTHI			LKNE			LTIB			LANK			LHEE			LTOE			RTHI			RKNE			RTIB			RANK			RHEE			RTOE			*39			*40			*41		
		X1	Y1	Z1	X2	Y2	Z2	X3	Y3	Z3	X4	Y4	Z4	X5	Y5	Z5	X6	Y6	Z6	X7	Y7	Z7	X8	Y8	Z8	X9	Y9	Z9	X10	Y10	Z10	X11	Y11	Z11	X12	Y12	Z12	X13	Y13	Z13	X14	Y14	Z14	X15	Y15	Z15	X16	Y16	Z16	X17	Y17	Z17	X18	Y18	Z18	X19	Y19	Z19	X20	Y20	Z20	X21	Y21	Z21	X22	Y22	Z22	X23	Y23	Z23	X24	Y24	Z24	X25	Y25	Z25	X26	Y26	Z26	X27	Y27	Z27	X28	Y28	Z28	X29	Y29	Z29	X30	Y30	Z30	X31	Y31	Z31	X32	Y32	Z32	X33	Y33	Z33	X34	Y34	Z34	X35	Y35	Z35	X36	Y36	Z36	X37	Y37	Z37	X38	Y38	Z38	X39	Y39	Z39	X40	Y40	Z40	X41	Y41	Z41	X42	Y42	Z42
																																																																																																																															
110	1.09	450.09433	1640.24133	1000.17871	518.63892	1647.51807	1090.25439	351.5253	1606.04431	1070.04956	422.22217	1613.05933	1165.99573	315.01572	1412.4845	1099.27112	281.7489	1114.83911	1112.05994	460.72	1340.37708	1084.51257	502.1954	1188.79102	1087.92798	266.09793	1220.2522	1185.63696	381.68817	1362.94751	929.63153	307.0376	1185.07739	861.53973	253.9066	1047.34326	878.78687	246.19173	933.83618	857.7038	277.13303	796.7218	869.10699	220.20261	813.89929	859.37982	231.17026	731.3302	845.40363	407.01941	1386.57617	1237.72546	352.68906	1201.54663	1358.80017	368.36066	1076.84351	1386.21924	467.85617	999.41388	1406.41504	601.89722	971.98645	1373.37549	574.59308	938.7854	1410.46875	657.22394	912.37988	1405.49146	474.39508	913.47186	1013.5603	456.42694	913.48718	1230.51587	284.43982	918.5835	1044.56958	273.64853	932.38513	1188.91125	528.62866	593.8421	968.95587	564.78009	470.83786	1000.20953	551.22369	282.88916	997.48724	552.2536	66.61928	1060.49194	509.12625	37.19851	1115.75574	696.18164	35.76398	1056.26355	335.2793	593.44476	1298.29675	301.77405	433.67743	1288.5824	157.63474	329.1319	1289.81494	19.11043	170.15683	1250.96777	-30.5248	184.97881	1198.37573	64.91685	32.88542	1218.60461	499.16959	1681.41992	1074.3866	-1973.06787	1024.06641	3102.46143	-2012.43457	1022.09619	3140.8418
111	1.1	463.62329	1639.9679	997.05719	531.85266	1647.31384	1086.95154	364.6377	1606.05103	1067.00439	435.43808	1613.17578	1163.00684	328.82507	1412.10632	1096.71826	295.91904	1114.20044	1110.24951	473.8606	1340.41748	1081.96265	516.23737	1188.87988	1085.60522	279.60391	1219.60571	1183.19824	394.79816	1362.06262	927.1106	321.88339	1183.40356	859.4729	269.34412	1045.42175	877.14203	261.87689	931.9126	856.21362	292.8714	794.85895	867.85486	235.80431	811.84192	858.33459	247.13802	729.31439	844.41187	419.88232	1386.44995	1235.4126	364.4184	1201.25879	1355.93115	380.12167	1076.7522	1383.64978	478.8457	998.33569	1404.47461	612.57104	969.04877	1371.86865	584.948	936.45825	1409.24524	667.23529	909.10675	1404.55994	488.82419	913.49652	1011.2713	471.36703	913.03125	1227.7876	298.81055	918.85693	1043.50012	288.90964	931.16138	1188.1366	545.51361	595.35205	970.00006	580.20496	472.06589	1002.00745	563.06451	282.30338	997.27319	554.3786	66.66126	1061.00366	510.00275	37.7619	1115.51599	698.80463	34.37804	1056.95459	355.17734	591.86359	1298.66101	324.72037	431.99442	1290.5658	178.86893	331.16608	1293.15247	36.54321	174.46513	1255.4884	-11.68199	194.25684	1203.10376	68.53465	33.38501	1218.55591	512.68896	1681.34375	1070.91858	-1972.95715	1024.14514	3102.65112	-2013.13	1022.44458	3138.44287
112	1.11	475.91025	1639.46655	993.71014	544.69501	1647.07642	1083.60962	377.73035	1605.948	1064.37354	448.54703	1613.18774	1159.87988	341.36758	1411.60596	1094.59021	309.68604	1113.86438	1108.4696	487.27136	1340.3374	1079.7002	529.88641	1188.98035	1083.43665	293.14978	1219.15552	1180.86279	407.91318	1361.46143	924.81427	336.74463	1182.17358	857.56451	284.92819	1043.71521	875.60278	278.04318	930.28302	854.75781	309.65231	793.32153	866.36224	252.55107	810.03052	856.83423	264.3132	727.4447	843.22473	432.84088	1386.52222	1233.32837	376.0975	1201.026	1353.13867	391.74399	1076.67993	1380.94971	489.56296	997.27979	1402.32422	622.86835	965.61469	1370.39551	594.69342	933.87335	1408.35132	676.56049	905.09497	1403.6908	502.71649	914.0672	1008.87958	486.03271	912.70624	1224.97815	312.56052	919.12103	1042.53577	303.19247	930.04987	1187.3064	562.34125	596.70343	970.36993	594.28717	471.18237	1002.67828	572.02765	280.40109	997.91614	555.72565	66.505	1061.32263	510.32703	38.04264	1115.00732	700.36011	33.46777	1057.48718	375.71494	589.97925	1298.526	348.67899	429.98538	1291.74951	201.24008	332.20169	1295.91223	54.72256	179.23068	1259.86487	7.67847	204.02914	1209.09033	74.34238	37.37953	1218.85962	526.25244	1681.14795	1067.32507	-1972.93652	1024.14185	3102.69849	-2013.04614	1022.34344	3138.64795
113	1.12	488.48502	1639.2572	990.60931	557.63025	1647.4303	1080.36084	390.38873	1605.58411	1061.49255	461.57278	1613.35767	1156.92578	354.38904	1411.24414	1092.08789	323.2821	1113.87842	1106.7373	500.5528	1340.34973	1077.57397	543.35876	1189.14868	1081.47107	306.5065	1219.02441	1178.60364	420.9263	1361.17651	922.73932	351.52521	1181.20142	855.84833	300.8627	1042.35132	873.99847	294.68832	928.93756	853.13733	327.31235	792.15753	864.68469	270.08035	808.48944	854.73389	282.45926	725.81201	841.73993	446.11844	1386.46948	1231.00769	387.87698	1200.92468	1350.32678	403.31226	1076.63184	1378.22827	499.75064	995.98761	1400.74658	632.71631	961.59589	1369.03992	604.02618	930.73737	1407.05066	685.17773	900.39398	1402.98877	516.29431	914.94537	1006.26489	500.39047	912.71777	1222.33984	326.08005	919.42767	1041.49951	317.47443	929.02301	1186.2251	578.42578	597.21674	970.50287	606.73895	468.92065	1002.63831	578.83746	278.80096	998.36353	556.56458	66.43111	1061.56482	510.69604	38.34572	1115.08911	701.51215	32.60744	1057.63013	397.01102	587.81793	1298.26843	373.66571	427.8421	1292.23718	224.72223	332.83658	1298.68591	73.88015	184.95009	1263.6156	28.54757	214.07892	1215.21619	81.66201	41.63126	1220.35828	539.36188	1680.96191	1063.83325	-1973.06433	1024.09497	3102.46704	-2013.03894	1022.37122	3138.41382
